# xmcd
#
# Track frame offsets:
#	150
#	9146
#	26635
#	37355
#	49864
#	62707
#	72845
#	83557
#	97756
#	111860
#	124565
#	141998
#	152683
#	164587
#	177718
#	188749
#	202596
#	215238
#
# Disc length: 3021 seconds
#
# Revision: 1
# Processed by: cddbd v1.5.2PL0 Copyright (c) Steve Scherf et al.
# Submitted via: EasyCDDAExtractor 12.0.1.1
#
DISCID=f80bcb12
DTITLE=Various Artist - The Ultimate Ballroom Album 12 CD2
DYEAR=2009
DGENRE=Dance
TTITLE0=John Barry Orch - EW 29 - Two Socks At Play
TTITLE1=McLauley and Horan - EW 29 - A Daisy In December
TTITLE2=Mari Fujiwara - EW 29 - Water Mark
TTITLE3=H. Mancini Orch. - EW 29 - Molly Maguires
TTITLE4=Andrea Ross - EW 29 - Moon River
TTITLE5=Dionne Warwick - EW 29 - One Hand One Heart
TTITLE6=Andy Williams - EW 29 - The Vision
TTITLE7=Geoff Love Orch. - EW 29 - Cavatina
TTITLE8=Satie Orch. - EW 29 - Trois Gymnopedies
TTITLE9=Toshiyeke Watanabe - EW 29 - White Fantasy
TTITLE10=The Prague Philharmonic Orch. - WW 59 - Eyes Wide Shut
TTITLE11=Stamatis Spanoudakis - WW 59 -Absences
TTITLE12=Tago Cafe Orq. - TG 30 - Rio Callegos
TTITLE13=Tago Cafe Orq. - TG 31 - Tango For Maya
TTITLE14=Tago Cafe Orq. - TG 32 - Poema Valseado
TTITLE15=Nuevo Tango Project - TG 32 - Santa Monica
TTITLE16=Nuevo Tango Project - TG 31 - Argentina Vieja
TTITLE17=Nuevo Tango Project - TG 31 - El Toreador
EXTD=
EXTT0=
EXTT1=
EXTT2=
EXTT3=
EXTT4=
EXTT5=
EXTT6=
EXTT7=
EXTT8=
EXTT9=
EXTT10=
EXTT11=
EXTT12=
EXTT13=
EXTT14=
EXTT15=
EXTT16=
EXTT17=
PLAYORDER=
